<?xml version="1.0" encoding="utf-8"?>
<!-- Generator: Adobe Illustrator 24.2.1, SVG Export Plug-In . SVG Version: 6.00 Build 0)  -->
<svg version="1.1" id="Capa_1" xmlns="http://www.w3.org/2000/svg" xmlns:xlink="http://www.w3.org/1999/xlink" x="0px" y="0px"
	 viewBox="0 0 563.75 563.71" style="enable-background:new 0 0 563.75 563.71;" xml:space="preserve">
<style type="text/css">
	.st0{fill:#9A1E33;}
</style>
<g>
	<path class="st0" d="M281.94,563.71C126.35,563.72-0.01,437.38,0,281.8C0.01,126.31,126.57-0.14,282.06,0
		c155.59,0.14,281.8,126.57,281.68,282.17C563.63,437.47,437.28,563.7,281.94,563.71z M334.51,237.62c-0.16,1.18-0.23,1.5-0.24,1.81
		c-0.29,14.4-0.55,28.8-0.85,43.2c-0.17,7.9-0.17,15.82-0.71,23.7c-0.32,4.78-1.58,9.9-6.14,12.24c-4.4,2.26-9.48,4.35-14.3,4.46
		c-20.65,0.48-41.32,0.2-61.99,0.21c-0.83,0-1.67-0.03-2.5,0.04c-10.89,0.92-20.91-5.9-21.87-18.26
		c-0.49-6.29-0.18-12.64-0.17-18.96c0.02-14.91,0.07-29.83,0.11-44.74c0-0.97,0-1.94,0-3.47c-3.42,0.44-6.48,0.62-9.43,1.28
		c-5.6,1.23-9.05,4.92-10.08,10.48c-0.66,3.57-0.89,7.27-0.87,10.91c0.03,8.52-1.88,16.5-6.03,23.91
		c-4.83,8.64-9.77,17.22-14.63,25.85c-4.11,7.27-3.79,14.43,0.58,21.5c4.09,6.62,6.93,13.79,9.36,21.17
		c0.68,2.07,2.2,4.08,3.81,5.59c2.38,2.24,5.52,2.83,8.81,2.83c48.24-0.03,96.49-0.02,144.73-0.02c0.58,0,1.17,0.01,1.75-0.03
		c5.08-0.3,10.08-4.15,11.4-9.06c2.08-7.71,5.51-14.76,9.62-21.57c3.63-6.02,4.38-12.42,0.94-18.77
		c-3.56-6.59-7.47-12.98-11.15-19.5c-4.08-7.25-8.42-14.46-9.49-22.9c-0.66-5.18-0.54-10.46-0.94-15.68
		c-0.46-5.99-2.06-11.58-8.35-13.86C342.37,238.7,338.49,238.41,334.51,237.62z M320.84,237.74c-1.18-4.58-2.14-8.85-3.39-13.03
		c-1.39-4.61-3.13-9.12-4.57-13.72c-2.73-8.76-6.82-16.61-12.97-23.62c-9.78-11.15-29.62-10.9-38.7,0.54
		c-4.3,5.42-8.22,10.98-10.28,17.55c-3.37,10.74-8.57,20.91-10.02,32.29c-2.01,0.1-3.97,0.19-5.82,0.28
		c-0.15,0.44-0.24,0.6-0.24,0.76c0,20-0.08,39.99,0.08,59.99c0.04,4.59,1.65,8.79,5.57,11.78c3.42,2.61,7.28,3.44,11.48,3.43
		c18.58-0.04,37.16-0.01,55.74-0.02c9.44,0,15.03-4.71,16.14-14.16c0.56-4.77,0.46-9.63,0.53-14.46
		c0.16-10.91,0.25-21.82,0.34-32.73c0.04-4.81,0.01-9.61,0.01-14.58C323.2,237.92,321.74,237.81,320.84,237.74z"/>
	<path class="st0" d="M303.8,237.69c-15.08,0-29.94,0-44.78,0c-0.19-3.05-0.35-6.08-0.6-9.1c-0.08-0.98-0.22-2.04-0.66-2.9
		c-2.15-4.15-1.55-8.32,0.1-12.32c2.28-5.5,4.33-11.23,7.51-16.19c7.57-11.78,27.54-10.88,33.58,3.74
		c2.56,6.18,4.11,12.78,6.08,19.21c0.21,0.69,0.37,1.58,0.12,2.21C303.27,227.27,302.91,232.34,303.8,237.69z"/>
</g>
</svg>
