<?xml version="1.0" encoding="utf-8"?>
<!-- Generator: Adobe Illustrator 24.2.1, SVG Export Plug-In . SVG Version: 6.00 Build 0)  -->
<svg version="1.1" id="Capa_1" xmlns="http://www.w3.org/2000/svg" xmlns:xlink="http://www.w3.org/1999/xlink" x="0px" y="0px"
	 viewBox="0 0 563.26 563.23" style="enable-background:new 0 0 563.26 563.23;" xml:space="preserve">
<style type="text/css">
	.st0{display:none;}
	.st1{display:inline;fill:#9A1E33;}
	.st2{fill:#9A1E33;}
</style>
<g class="st0">
	<path class="st1" d="M281.77,563.23C126.29,563.26,0.02,437.07,0,281.63C-0.02,126.26,126.38-0.09,281.75,0
		c155.44,0.09,281.61,126.41,281.51,281.86C563.17,437.05,436.96,563.2,281.77,563.23z M279.58,376.36c14.65,0,29.3,0.03,43.95-0.01
		c5.57-0.02,11.15-0.05,16.72-0.34c5.11-0.27,10.21-1.22,14.23-4.64c6.76-5.75,9.7-13.3,9.45-22.12
		c-0.29-10.06-0.53-20.13-0.89-30.19c-0.34-9.64-0.39-19.32-1.31-28.91c-1.49-15.49-4.89-30.68-8.72-45.75
		c-2.79-10.98-6.28-21.73-11.67-31.77c-3.88-7.23-9-13.12-16.87-16.25c-3.86-1.54-7.51-3.62-11.41-5.03
		c-2.99-1.08-4.49-2.68-4.15-5.91c0.09-0.89-0.17-1.82-0.32-2.72c-1.07-6.4-3.19-12.59-9.67-14.99c-7.8-2.88-15.93-5.27-24.51-3.83
		c-3.2,0.54-6.37,1.19-9.57,1.73c-5.9,0.99-11.01,3.55-13.4,9.18c-1.62,3.81-2.12,8.14-2.8,12.28c-0.27,1.62-0.62,2.69-2.15,3.5
		c-3.82,2.02-7.61,4.12-11.29,6.39c-3.46,2.13-7.07,4.17-10.06,6.86c-5.89,5.29-9.09,12.44-12.06,19.6
		c-5.6,13.51-8.62,27.74-11.5,42.01c-2.52,12.49-4.4,25.08-4.89,37.8c-0.6,15.38-0.65,30.79-1.11,46.18
		c-0.13,4.44,0.71,8.54,2.49,12.57c3.13,7.1,8.07,12.02,15.91,13.28c4.09,0.66,8.27,1.01,12.41,1.04
		C244.12,376.42,261.85,376.36,279.58,376.36z"/>
	<path class="st1" d="M280.51,363.27c-9.9,0-19.81-0.01-29.71,0c-4.08,0.01-8.16,0.05-12.23,0.11
		c-12.53,0.16-21.07-7.91-21.19-20.44c-0.15-15.81-0.16-31.63,0-47.45c0.13-12.34,8.42-20.36,20.74-20.37
		c27.64-0.03,55.27-0.03,82.91,0c10.01,0.01,17.31,5.33,19.94,14.52c0.4,1.41,0.5,2.95,0.52,4.43c0.18,16.31,0.34,32.63,0.46,48.94
		c0.05,6.81-2.36,12.52-7.87,16.71c-3.05,2.32-6.52,3.71-10.39,3.7c-13.73-0.01-27.46-0.1-41.19-0.16c-0.66,0-1.33-0.07-1.99-0.11
		C280.51,363.19,280.51,363.23,280.51,363.27z M279.26,352.72c5.15-0.24,10.3-0.42,15.45-0.76c2.48-0.16,4.93-0.69,7.41-0.97
		c10.88-1.23,16.41-8.6,18.28-15.68c1.78-6.74,3.29-13.56,4.54-20.42c1.17-6.43,2.3-12.94,2.58-19.45
		c0.27-6.25-3.83-9.83-10.06-9.81c-25.71,0.08-51.42,0.2-77.12,0.33c-4.31,0.02-7.5,2.15-8.47,6.33c-0.68,2.93-0.99,6.18-0.45,9.1
		c2.09,11.35,4.11,22.74,7.09,33.87c1.9,7.12,6.67,12.62,14.28,14.72C261.45,352.37,270.35,352.49,279.26,352.72z"/>
	<path class="st1" d="M340.53,262.47c-3.92-0.57-7.44-1.07-11.03-1.59c-0.83-3.88-1.46-7.8-2.52-11.61
		c-3.62-12.98-10.42-24.02-20.55-32.96c-4.76-4.2-10.43-6.33-16.63-7.35c-6.88-1.14-13.73-1.07-20.63-0.22
		c-12.49,1.54-20.21,9.64-26.83,19.28c-6.16,8.97-9.47,18.99-10.57,29.76c-0.15,1.5-0.69,2.14-2.17,2.44
		c-3.38,0.7-6.73,1.59-10.91,2.59c0.87-4.56,1.46-8.56,2.42-12.47c2.6-10.53,7.34-20.01,13.38-29.04
		c5.08-7.59,11.16-13.83,19.13-18.1c17.26-9.24,34.69-9.25,51.98-0.07c12.27,6.51,20.06,17.22,26.4,29.13
		c4.29,8.07,6.73,16.79,8.28,25.76C340.53,259.39,340.45,260.81,340.53,262.47z"/>
	<path class="st1" d="M295.05,186.02c-10.77,0-21.37,0-32.01,0c1.9-7.61,4-10.85,12.27-11.52c3.89-0.32,7.58-0.19,11.25,1.11
		C291.51,177.35,293.39,181.54,295.05,186.02z"/>
</g>
<g class="st0">
	<path class="st1" d="M281.7,563.47C126.1,563.48-0.25,437.14-0.24,281.56C-0.24,126.07,126.33-0.38,281.82-0.24
		C437.41-0.1,563.62,126.33,563.5,281.93C563.39,437.23,437.04,563.46,281.7,563.47z M334.27,237.38c-0.16,1.18-0.23,1.5-0.24,1.81
		c-0.29,14.4-0.55,28.8-0.85,43.2c-0.17,7.9-0.17,15.82-0.71,23.7c-0.32,4.78-1.58,9.9-6.14,12.24c-4.4,2.26-9.48,4.35-14.3,4.46
		c-20.65,0.48-41.32,0.2-61.99,0.21c-0.83,0-1.67-0.03-2.5,0.04c-10.89,0.92-20.91-5.9-21.87-18.26
		c-0.49-6.29-0.18-12.64-0.17-18.96c0.02-14.91,0.07-29.83,0.11-44.74c0-0.97,0-1.94,0-3.47c-3.42,0.44-6.48,0.62-9.43,1.28
		c-5.6,1.23-9.05,4.92-10.08,10.48c-0.66,3.57-0.89,7.27-0.87,10.91c0.03,8.52-1.88,16.5-6.03,23.91
		c-4.83,8.64-9.77,17.22-14.63,25.85c-4.11,7.27-3.79,14.43,0.58,21.5c4.09,6.62,6.93,13.79,9.36,21.17
		c0.68,2.07,2.2,4.08,3.81,5.59c2.38,2.24,5.52,2.83,8.81,2.83c48.24-0.03,96.49-0.02,144.73-0.02c0.58,0,1.17,0.01,1.75-0.03
		c5.08-0.3,10.08-4.15,11.4-9.06c2.08-7.71,5.51-14.76,9.62-21.57c3.63-6.02,4.38-12.42,0.94-18.77
		c-3.56-6.59-7.47-12.98-11.15-19.5c-4.08-7.25-8.42-14.46-9.49-22.9c-0.66-5.18-0.54-10.46-0.94-15.68
		c-0.46-5.99-2.06-11.58-8.35-13.86C342.13,238.46,338.25,238.17,334.27,237.38z M320.6,237.5c-1.18-4.58-2.14-8.85-3.39-13.03
		c-1.39-4.61-3.13-9.12-4.57-13.72c-2.73-8.76-6.82-16.61-12.97-23.62c-9.78-11.15-29.62-10.9-38.7,0.54
		c-4.3,5.42-8.22,10.98-10.28,17.55c-3.37,10.74-8.57,20.91-10.02,32.29c-2.01,0.1-3.97,0.19-5.82,0.28
		c-0.15,0.44-0.24,0.6-0.24,0.76c0,20-0.08,39.99,0.08,59.99c0.04,4.59,1.65,8.79,5.57,11.78c3.42,2.61,7.28,3.44,11.48,3.43
		c18.58-0.04,37.16-0.01,55.74-0.02c9.44,0,15.03-4.71,16.14-14.16c0.56-4.77,0.46-9.63,0.53-14.46
		c0.16-10.91,0.25-21.82,0.34-32.73c0.04-4.81,0.01-9.61,0.01-14.58C322.96,237.68,321.5,237.57,320.6,237.5z"/>
	<path class="st1" d="M303.56,237.45c-15.08,0-29.94,0-44.78,0c-0.19-3.05-0.35-6.08-0.6-9.1c-0.08-0.98-0.22-2.04-0.66-2.9
		c-2.15-4.15-1.55-8.32,0.1-12.32c2.28-5.5,4.33-11.23,7.51-16.19c7.57-11.78,27.54-10.88,33.58,3.74
		c2.56,6.18,4.11,12.78,6.08,19.21c0.21,0.69,0.37,1.58,0.12,2.21C303.02,227.03,302.67,232.1,303.56,237.45z"/>
</g>
<g class="st0">
	<path class="st1" d="M281.87-0.17C437.5-0.06,563.63,126.3,563.5,281.97c-0.13,155.56-126.63,281.65-282.35,281.42
		C125.63,563.16-0.42,436.78-0.24,281.26C-0.07,125.77,126.28-0.27,281.87-0.17z M317.04,167.38c-0.19-2.24-0.37-4.21-0.51-6.18
		c-0.31-4.32-2.73-6.92-6.79-7.86c-2.58-0.6-5.26-0.99-7.9-1.01c-15.75-0.1-31.49-0.07-47.24-0.03c-1.56,0-3.16,0.24-4.67,0.65
		c-5.55,1.51-10.93,8.86-9.38,14.59c3.03,0,6.14,0,9.19,0c0,19.07,0,37.85,0,56.58c-0.37,0.07-0.54,0.13-0.7,0.13
		c-6.83,0.01-13.66,0-20.49,0.04c-1.49,0.01-3.03,0.03-4.46,0.38c-7.4,1.82-11.52,7.34-11.52,15.43
		c-0.02,27.83-0.01,55.65-0.01,83.48c0,12.41-0.02,24.83,0.01,37.24c0.02,6.84,3.89,12.6,9.87,14.82c0.99,0.37,2,0.65,3,0.97
		c-1.37,5.19,1.07,10.09,5.58,10.59c2.34,0.26,5.1-0.07,7.17-1.13c3.5-1.79,3.9-5.46,3.5-9.14c26.08,0,51.86,0,77.63,0
		c0.65,8.26,3.19,11.08,9.76,10.37c1.81-0.2,3.82-1.27,5.17-2.54c2.62-2.47,2.41-5.77,1.38-8.95c8.29-2.78,11.25-8.89,11.21-16.21
		c-0.18-35.82-0.08-71.65-0.08-107.47c0-4.33,0.08-8.67-0.03-13c-0.21-8.81-6.31-14.79-15.12-14.85c-6.33-0.05-12.66-0.01-19-0.01
		c-1.39,0-2.78,0-4.25,0c0-19.07,0-37.85,0-56.89C311.29,167.38,314.08,167.38,317.04,167.38z"/>
	<path class="st1" d="M223.56,307.85c0-13.33,0.27-26.66-0.07-39.98c-0.36-14.07,11.65-24.83,24.59-24.6
		c20.74,0.37,41.48,0.1,62.23,0.1c12.9,0,22.52,9.33,22.7,22.42c0.2,14.41,0.06,28.82,0.06,43.23c0,13.16,0.03,26.32-0.01,39.49
		c-0.03,8.25-4.61,14.59-12.24,16.87c-1.88,0.56-3.93,0.73-5.91,0.73c-24.41,0.05-48.82,0.05-73.23,0.02
		c-11.19-0.01-18.07-6.87-18.11-18.06C223.52,334.67,223.56,321.26,223.56,307.85z M325.66,297.87c-31.96,0-63.55,0-95.18,0
		c-0.05,0.79-0.12,1.37-0.12,1.94c-0.01,15.32-0.05,30.64,0.01,45.96c0.03,8,4.68,12.88,12.7,12.93
		c23.23,0.12,46.46,0.11,69.69,0.01c8.21-0.04,12.89-5.05,12.9-13.27c0.01-14.99,0-29.98,0-44.96
		C325.66,299.66,325.66,298.84,325.66,297.87z M249.76,290.32c0-3.59-0.01-6.91,0-10.23c0.02-9.51,6-15.7,15.48-15.8
		c9.91-0.11,19.83-0.01,29.74-0.03c3.25-0.01,6.25,0.67,8.9,2.67c4.13,3.12,6.3,7.19,6.22,12.43c-0.05,3.63-0.01,7.26-0.01,10.85
		c5.52,0,10.63,0,15.82,0c0-8.2,0.49-16.23-0.13-24.16c-0.73-9.44-7.34-15.49-16.37-15.56c-20.49-0.14-40.99-0.01-61.49-0.06
		c-6.71-0.02-17.09,6.54-17.26,15.44c-0.15,7.99-0.01,15.99,0.01,23.98c0,0.13,0.18,0.26,0.34,0.47
		C237.12,290.32,243.25,290.32,249.76,290.32z M257.07,290.12c1.02,0.05,1.91,0.13,2.8,0.13c6.32,0.01,12.64,0.01,18.96,0.01
		c7.07,0,14.14-0.05,21.21,0.03c1.83,0.02,2.56-0.51,2.45-2.4c-0.17-2.9,0.01-5.83-0.26-8.72c-0.45-4.72-4.53-8.35-9.29-8.38
		c-8.82-0.06-17.63-0.06-26.45,0.01c-4.53,0.03-8.87,3.67-9.34,8.17C256.78,282.57,257.07,286.24,257.07,290.12z"/>
	<path class="st1" d="M298.05,167.56c0,18.9,0,37.62,0,56.52c-12.76,0-25.45,0-38.28,0c0-18.83,0-37.61,0-56.52
		C272.5,167.56,285.12,167.56,298.05,167.56z"/>
</g>
<g class="st0">
	<path class="st1" d="M281.65-0.17C437.32-0.15,563.56,126.12,563.5,281.75c-0.05,155.61-126.42,281.76-282.13,281.65
		C125.83,563.28-0.34,436.96-0.24,281.48C-0.14,125.95,126.11-0.19,281.65-0.17z M339.93,347.82c0-39.47,0-78.66,0-118.09
		c-9.81,0-19.43,0-28.96,0c-0.16-0.39-0.26-0.54-0.27-0.69c-0.06-0.83-0.08-1.66-0.14-2.49c-0.72-9.36-2.45-18.38-9.4-25.41
		c-8.15-8.24-17.79-11.77-29.08-7.86c-12.84,4.45-20.22,13.81-22.5,27.17c-0.51,3.01-0.76,6.07-1.17,9.43c-9.69,0-19.29,0-28.8,0
		c0,39.52,0,78.71,0,117.95C259.8,347.82,299.77,347.82,339.93,347.82z M208.03,347.77c0-39.4,0-78.58,0-117.94
		c-8.49-0.27-16.72,0.44-24.78,2.72c-10.62,3-16.35,10.41-18.18,20.95c-1.52,8.79-0.77,17.65,0.68,26.35
		c2.59,15.46,4.36,30.95,4.71,46.63c0.07,3.05,0.9,6.33,2.29,9.04c3.17,6.22,7.91,11.31,15.16,12.1
		C194.48,348.33,201.19,347.77,208.03,347.77z M351.64,347.85c6.62,0,12.94,0.08,19.27-0.05c1.61-0.03,3.41-0.41,4.79-1.2
		c8-4.58,13.11-10.9,13.08-20.77c-0.04-13.08,1.24-26.07,3.73-38.95c2.06-10.64,3.45-21.39,2.1-32.26
		c-1.05-8.45-4.74-15.56-12.55-19.53c-3.93-1.99-8.4-3.22-12.77-3.97c-5.76-0.99-11.65-1.18-17.65-1.74
		C351.64,269.26,351.64,308.44,351.64,347.85z"/>
	<path class="st1" d="M259.95,229.1c0.81-3.74,1.23-7.33,2.38-10.67c3.52-10.15,10.8-14.23,21.44-12.38
		c10.12,1.77,15.26,7.57,15.76,17.84c0.08,1.66,0.01,3.32,0.01,5.21C286.43,229.1,273.43,229.1,259.95,229.1z"/>
</g>
<g>
	<path class="st2" d="M563.06,281.65c0,155.25-126.08,281.37-281.33,281.41C126.43,563.1-0.04,436.64,0.2,281.54
		C0.44,125.85,126.46,0.06,282.1,0.17C437.15,0.28,563.06,126.42,563.06,281.65z M279.35,213.15c-15.48,0-30.97,0-46.45,0
		c-13.48,0-26.97,0.07-40.45-0.03c-7.72-0.05-11.75,5.24-11.57,11.42c0.3,10.17,0.16,20.35,0.02,30.53
		c-0.03,2.44,0.75,3.94,2.69,5.39c16.76,12.48,36,19.18,56.08,23.5c22.08,4.76,44.41,4.29,66.68,1.16
		c24.83-3.48,48.35-11.2,70.68-22.58c1.32-0.67,1.89-1.42,1.89-2.97c-0.07-11.74,0.08-23.49-0.14-35.23
		c-0.04-2.27-1.01-4.76-2.22-6.73c-2.43-3.93-6.7-4.41-10.83-4.42C336.94,213.12,308.15,213.15,279.35,213.15z M180.69,274.64
		c0,0.5,0,1.62,0,2.74c-0.02,12.35-0.15,24.7,0.02,37.05c0.04,2.56,0.71,5.38,1.94,7.61c1.99,3.59,5.62,4.41,9.64,4.41
		c58.27-0.06,116.54-0.04,174.81-0.04c0.87,0,1.74,0.01,2.61-0.06c4.37-0.37,8.57-4.35,8.61-8.73c0.14-13.48,0.06-26.96,0.05-40.44
		c0-0.15-0.14-0.29-0.22-0.44c-0.17-0.01-0.35-0.07-0.5-0.01c-0.32,0.12-0.64,0.28-0.93,0.46c-23.06,14.25-48.65,20.12-75.23,22.31
		c-16.04,1.32-32.13,1.04-48.2-0.32c-16.32-1.37-32.16-4.66-47.04-11.66C197.49,283.39,188.94,278.82,180.69,274.64z"/>
	<path class="st2" d="M296.65,279.14c-11.61,0-22.97,0-34.48,0c0-5.82,0-11.51,0-17.42c11.47,0,22.89,0,34.48,0
		C296.65,267.54,296.65,273.36,296.65,279.14z"/>
</g>
</svg>
